<?xml version="1.0" encoding="utf-8"?>
<!-- Generator: Adobe Illustrator 23.1.1, SVG Export Plug-In . SVG Version: 6.00 Build 0)  -->
<svg version="1.1" id="Layer_1" xmlns="http://www.w3.org/2000/svg" xmlns:xlink="http://www.w3.org/1999/xlink" x="0px" y="0px"
	 viewBox="0 0 72 72" style="enable-background:new 0 0 72 72;" xml:space="preserve">
<style type="text/css">
	.st0{fill:#1DA1F2;}
	.st1{fill:#FFFFFF;}
</style>
<path class="st0" d="M36.2,1C16.9,1.1,1.3,16.7,1.4,36c0,6.8,2,13.5,5.8,19.2L0.8,65.4L13.1,62c14.4,12.8,36.4,11.4,49.2-3
	c12.8-14.4,11.4-36.4-3-49.2C52.9,4.2,44.7,1,36.2,1L36.2,1z"/>
<g>
	<path class="st1" d="M10.4,36.6V36l18.2-20.3l2.9,2.7L15.7,36v0.4l15.8,17.8l-2.8,2.7L10.4,36.6z"/>
	<path class="st1" d="M42.4,56.8l-2.8-2.7l15.8-17.8V36L39.5,18.4l2.9-2.7L60.6,36v0.6L42.4,56.8z"/>
</g>
</svg>
