<?xml version="1.0" standalone="no"?>
<!DOCTYPE svg PUBLIC "-//W3C//DTD SVG 20010904//EN"
 "http://www.w3.org/TR/2001/REC-SVG-20010904/DTD/svg10.dtd">
<svg version="1.0" xmlns="http://www.w3.org/2000/svg"
 width="700.000000pt" height="700.000000pt" viewBox="0 0 700.000000 700.000000"
 preserveAspectRatio="xMidYMid meet">
<metadata>
Created by potrace 1.11, written by Peter Selinger 2001-2013
</metadata>
<g transform="translate(0.000000,700.000000) scale(0.100000,-0.100000)"
fill="#000000" stroke="none">
<path d="M3457 6904 c-1 -1 -54 -5 -117 -8 -63 -4 -128 -8 -145 -10 -119 -13
-161 -18 -166 -22 -3 -1 -30 -6 -60 -9 -44 -5 -164 -29 -249 -50 -437 -106
-882 -319 -1245 -593 -154 -117 -374 -321 -492 -457 -28 -33 -61 -71 -73 -85
-45 -52 -190 -248 -190 -258 0 -5 -7 -15 -15 -22 -23 -19 -143 -225 -216 -370
-169 -338 -286 -726 -325 -1070 -3 -30 -7 -66 -10 -80 -7 -44 -17 -252 -17
-350 0 -101 11 -341 18 -381 2 -13 9 -62 15 -109 6 -47 18 -116 25 -155 8 -38
16 -82 19 -96 8 -50 57 -225 92 -334 81 -248 208 -520 343 -730 24 -38 44 -75
44 -81 0 -10 -114 -198 -221 -364 -49 -77 -71 -111 -142 -225 -34 -55 -89
-143 -122 -195 -33 -52 -69 -110 -79 -128 -11 -18 -27 -44 -35 -57 l-16 -25
48 15 c45 14 147 42 184 50 14 4 67 18 414 116 60 17 118 32 128 34 11 3 50
13 87 24 105 32 318 91 327 91 5 0 45 -30 89 -66 111 -91 107 -88 188 -147
260 -190 574 -352 882 -456 224 -75 507 -140 693 -157 31 -3 68 -8 82 -11 61
-12 520 -10 637 3 113 12 274 36 333 48 14 3 36 7 50 10 174 35 478 131 640
203 53 24 252 121 280 137 329 188 543 350 783 591 564 565 900 1288 974 2090
10 104 10 466 0 575 -63 725 -356 1415 -828 1950 -77 87 -215 228 -280 285
-95 84 -117 102 -214 176 -431 326 -923 547 -1435 643 -123 23 -139 25 -200
32 -30 3 -66 7 -80 10 -34 5 -398 22 -403 18z"/>
</g>
</svg>
